<svg version="1.1" id="Layer_1" xmlns="http://www.w3.org/2000/svg" xmlns:xlink="http://www.w3.org/1999/xlink" x="0px" y="0px"
	 width="100%" viewBox="0 0 1691 2160" enable-background="new 0 0 1691 2160" xml:space="preserve">
<path fill="#000000" opacity="1.000000" stroke="none" 
	d="
M1036.000000,2161.000000 
	C690.666687,2161.000000 345.833344,2161.000000 1.000000,2161.000000 
	C1.000000,1441.000000 1.000000,721.000000 1.000000,1.000000 
	C564.666687,1.000000 1128.333374,1.000000 1692.000000,1.000000 
	C1692.000000,721.000000 1692.000000,1441.000000 1692.000000,2161.000000 
	C1473.500000,2161.000000 1255.000000,2161.000000 1036.000000,2161.000000 
M938.000671,124.509026 
	C935.987366,120.601562 934.063416,116.644981 931.946106,112.794662 
	C918.849243,88.977661 899.814209,71.067673 876.347046,57.804482 
	C842.494385,38.671616 805.363037,31.599663 767.124451,30.240892 
	C747.304932,29.536623 727.378052,30.999109 707.535095,32.113270 
	C694.772278,32.829891 681.958496,34.022854 669.372009,36.189903 
	C647.054810,40.032310 624.710266,44.019707 602.709412,49.324478 
	C569.983643,57.215199 537.583496,66.346214 505.864655,77.853592 
	C474.061188,89.391693 443.034973,102.433090 414.010193,119.973434 
	C388.471924,135.406830 365.229462,153.543274 347.091736,177.482117 
	C324.373840,207.465942 315.315002,241.021011 320.860657,278.558868 
	C324.044250,300.107880 330.776398,320.432190 340.479492,339.691772 
	C350.394470,359.371857 361.405884,378.500427 371.971680,397.851654 
	C385.506409,422.640442 399.071686,447.412506 412.630951,472.187866 
	C423.759338,492.521454 434.899384,512.848694 446.032013,533.179932 
	C461.478760,561.389771 476.918671,589.603394 492.370514,617.810364 
	C503.586243,638.284424 514.821228,658.747986 526.039307,679.220703 
	C541.494629,707.426392 556.940735,735.637207 572.393555,763.844299 
	C583.609558,784.317566 594.830200,804.788391 606.048584,825.260437 
	C621.504944,853.466187 636.962708,881.671143 652.416565,909.878235 
	C663.632812,930.350586 674.738892,950.884155 686.084595,971.284546 
	C698.916138,994.356506 715.259399,1014.501404 736.232910,1030.763672 
	C755.561401,1045.750366 777.276489,1054.939331 801.650330,1056.863647 
	C817.770142,1058.136475 833.390869,1054.670044 847.857117,1047.494385 
	C870.916138,1036.056641 887.003723,1017.405884 898.892151,995.101868 
	C914.844116,965.174133 920.960571,932.505310 923.923645,899.142334 
	C925.048096,886.480530 925.384888,873.746521 925.984314,861.040894 
	C926.709167,845.674500 927.337280,830.303528 927.996826,814.934082 
	C928.670593,799.231934 929.323547,783.528809 930.000793,767.826843 
	C930.656494,752.623840 931.345276,737.422363 931.994019,722.219055 
	C932.678284,706.183960 933.314514,690.146851 934.004944,674.112061 
	C934.645264,659.241821 935.342712,644.374023 935.990906,629.504150 
	C936.675354,613.802429 937.326599,598.099182 938.000793,582.396973 
	C938.660706,567.027588 939.333435,551.658752 939.996399,536.289490 
	C940.666565,520.753784 941.326416,505.217621 942.000366,489.682068 
	C942.659973,474.479309 943.342773,459.277496 943.995056,444.074402 
	C944.675842,428.205841 945.319153,412.335693 946.003174,396.467255 
	C946.651245,381.430695 947.349976,366.396240 947.991150,351.359375 
	C948.682007,335.157898 949.309387,318.953674 950.006531,302.752472 
	C950.639160,288.048615 951.352783,273.348175 951.986084,258.644348 
	C952.683899,242.443100 953.938721,226.235062 953.815369,210.038635 
	C953.708923,196.068329 952.436218,182.062790 950.896545,168.159485 
	C949.236511,153.169098 944.776123,138.849915 938.000671,124.509026 
M1526.628662,1548.926758 
	C1518.903809,1544.661011 1511.210205,1540.337280 1503.446899,1536.142700 
	C1490.807373,1529.313721 1478.070435,1522.664185 1465.467651,1515.768677 
	C1441.402222,1502.601074 1417.439331,1489.245728 1393.364868,1476.094849 
	C1366.570190,1461.457886 1339.686157,1446.985107 1312.864258,1432.398193 
	C1287.189941,1418.435303 1261.552002,1404.405396 1235.886108,1390.427246 
	C1209.646606,1376.136719 1183.505005,1361.660889 1157.114990,1347.653320 
	C1126.233398,1331.261597 1093.828369,1321.076782 1058.210693,1324.969849 
	C1043.605469,1326.566162 1029.867188,1330.528809 1017.071167,1337.937744 
	C988.136597,1354.691528 973.875793,1380.513550 971.147949,1413.016357 
	C969.694580,1430.333862 972.732666,1447.311157 977.848450,1463.990723 
	C983.350525,1481.930176 992.295715,1498.171265 1001.136475,1514.520264 
	C1011.237244,1533.199097 1021.212891,1551.945679 1031.258423,1570.654541 
	C1043.699951,1593.825806 1056.178101,1616.977173 1068.601074,1640.158447 
	C1078.475464,1658.583862 1088.267578,1677.053711 1098.137573,1695.481567 
	C1110.941650,1719.387573 1123.804443,1743.262207 1136.608643,1767.168091 
	C1146.478760,1785.595947 1156.270386,1804.065796 1166.145996,1822.490723 
	C1178.570435,1845.670776 1191.218506,1868.732788 1203.445923,1892.015991 
	C1214.323975,1912.730225 1225.432007,1933.241699 1240.625488,1951.242432 
	C1251.648926,1964.302490 1263.852295,1975.870605 1279.062866,1984.044189 
	C1300.782104,1995.715210 1323.964722,1998.005615 1347.702271,1993.798462 
	C1373.219849,1989.275635 1396.534424,1978.455811 1418.382446,1964.867432 
	C1432.498657,1956.087891 1446.129517,1946.390869 1459.225464,1936.143677 
	C1474.614258,1924.101807 1489.913086,1911.770996 1503.963745,1898.229858 
	C1532.678345,1870.556519 1561.477661,1842.807617 1584.974609,1810.346436 
	C1597.207520,1793.446533 1609.172852,1776.230713 1619.666992,1758.229492 
	C1630.015869,1740.477539 1637.666382,1721.204590 1640.490356,1700.636963 
	C1641.968140,1689.873413 1642.631104,1678.737305 1641.606079,1667.965210 
	C1640.611816,1657.515381 1637.142700,1647.489624 1632.505127,1637.602417 
	C1627.875977,1627.732910 1621.639771,1619.501465 1614.853516,1611.475220 
	C1598.421753,1592.041260 1576.804443,1579.007324 1555.970581,1565.135742 
	C1546.894653,1559.092896 1536.928955,1554.386230 1526.628662,1548.926758 
M575.304993,2105.084961 
	C575.733215,2105.340576 576.130920,2105.695312 576.593933,2105.837891 
	C602.419250,2113.788574 628.316528,2121.305664 654.969971,2126.258789 
	C674.236267,2129.839111 693.574646,2132.139893 713.071045,2132.822266 
	C723.068115,2133.172363 733.154907,2131.927979 743.156433,2130.947510 
	C757.333801,2129.557617 770.980530,2126.145996 784.187500,2120.501953 
	C807.978516,2110.334229 825.388428,2093.553467 837.482605,2070.990234 
	C850.415649,2046.862305 854.463379,2020.422363 856.924805,1993.666626 
	C858.028320,1981.671509 858.413574,1969.606323 858.972900,1957.565918 
	C859.725464,1941.367798 860.316284,1925.162231 861.004089,1908.960938 
	C861.649475,1893.757935 862.349670,1878.557373 862.991150,1863.354126 
	C863.681824,1846.986328 864.309937,1830.615967 865.006653,1814.248413 
	C865.639709,1799.378296 866.349670,1784.511475 866.986877,1769.641602 
	C867.681152,1753.440674 868.316162,1737.237061 869.003967,1721.035767 
	C869.649414,1705.832886 870.357361,1690.632446 870.988159,1675.428955 
	C871.687988,1658.561523 872.295288,1641.690186 873.011108,1624.823608 
	C873.621033,1610.452515 874.361389,1596.086914 874.982849,1581.716309 
	C875.690674,1565.349121 876.633057,1548.984131 876.898315,1532.608887 
	C877.088745,1520.850830 877.117249,1508.988159 875.788147,1497.335327 
	C874.390259,1485.080322 872.313416,1472.706543 868.714905,1460.940674 
	C861.860046,1438.527588 849.718201,1419.304199 830.069641,1405.600830 
	C811.181152,1392.427734 790.127686,1387.883545 767.565491,1391.142212 
	C751.259399,1393.497437 736.182434,1399.712769 722.155273,1408.389771 
	C704.166809,1419.517456 688.885132,1433.692993 676.003601,1450.362183 
	C666.416260,1462.768555 657.390259,1475.610718 648.188293,1488.312622 
	C632.572754,1509.867798 616.999817,1531.453857 601.439209,1553.048706 
	C588.648071,1570.799927 575.940063,1588.611450 563.124695,1606.345093 
	C544.468628,1632.161011 525.688599,1657.887329 507.075104,1683.733765 
	C491.432220,1705.455444 475.928223,1727.277344 460.404877,1749.084839 
	C438.253357,1780.204102 415.642822,1811.012451 394.177246,1842.598511 
	C378.581848,1865.546997 366.997162,1890.385498 363.789398,1918.641113 
	C361.689331,1937.139526 364.565826,1954.468506 371.752930,1971.383911 
	C381.646912,1994.670288 398.588470,2012.424194 417.742767,2027.941040 
	C439.753967,2045.772217 464.378876,2059.584961 490.044281,2071.661133 
	C517.509827,2084.583984 545.735840,2095.438721 575.304993,2105.084961 
M675.966431,1125.467041 
	C672.842957,1124.064575 669.789917,1122.471191 666.585022,1121.289551 
	C637.741882,1110.655762 608.872070,1100.094360 580.009949,1089.511963 
	C542.595703,1075.793945 505.184570,1062.067383 467.765869,1048.361450 
	C434.165588,1036.053955 400.556671,1023.770325 366.951965,1011.475159 
	C333.347626,999.180115 299.763458,986.829651 266.133850,974.604126 
	C237.104370,964.050903 208.549622,952.025024 177.923416,946.416992 
	C162.034836,943.507629 146.006729,942.641724 130.155594,945.227295 
	C108.270683,948.797119 88.931313,958.571045 73.949463,974.953674 
	C64.977898,984.764099 57.099808,995.912109 50.467613,1007.457031 
	C34.463226,1035.316406 26.217270,1066.116699 20.256651,1097.372803 
	C16.125351,1119.036499 13.486554,1141.030518 11.181271,1162.982056 
	C9.338585,1180.528687 8.310411,1198.229004 8.184895,1215.869995 
	C8.044769,1235.564087 8.882123,1255.297485 10.149970,1274.958496 
	C11.055114,1288.994873 12.549796,1303.101196 15.246719,1316.889771 
	C19.634018,1339.320557 26.379324,1361.085327 37.616642,1381.249512 
	C45.530346,1395.449829 55.352478,1408.106323 67.956894,1418.303833 
	C86.380913,1433.209473 108.007782,1441.154907 131.352020,1442.673340 
	C146.771393,1443.676025 162.522964,1442.649536 177.881805,1440.653931 
	C193.818192,1438.583374 209.493362,1434.396240 225.224472,1430.874512 
	C257.623810,1423.621582 289.982422,1416.186646 322.361420,1408.842529 
	C347.280975,1403.190430 372.208435,1397.573364 397.128235,1391.922485 
	C426.492004,1385.263550 455.852051,1378.588379 485.212280,1371.914062 
	C514.572144,1365.239746 543.937866,1358.590942 573.286926,1351.869385 
	C600.569458,1345.620850 627.915588,1339.623291 655.083862,1332.908936 
	C685.686951,1325.345459 710.994812,1309.232666 729.151917,1283.182861 
	C744.207703,1261.582642 750.853760,1237.621948 747.066467,1211.093262 
	C743.965637,1189.372925 733.885986,1171.201050 718.998169,1155.681763 
	C706.888062,1143.057983 692.396423,1133.460083 675.966431,1125.467041 
M1461.641724,650.899109 
	C1456.196533,649.933777 1450.784790,648.452332 1445.300171,648.097656 
	C1427.254395,646.930786 1410.114502,650.863770 1393.879761,658.622864 
	C1375.467773,667.422424 1360.036865,680.437988 1345.363525,694.296509 
	C1336.078735,703.065796 1327.595337,712.679321 1318.657715,721.821777 
	C1300.866211,740.021118 1283.007812,758.155090 1265.180054,776.319031 
	C1247.702393,794.126099 1230.230591,811.938904 1212.752441,829.745544 
	C1194.807495,848.027893 1176.855591,866.303528 1158.911133,884.586304 
	C1141.550171,902.274536 1124.200806,919.973938 1106.835449,937.657837 
	C1087.835449,957.006348 1068.850586,976.369873 1049.804321,995.672668 
	C1040.088501,1005.519287 1030.349609,1015.346985 1020.448547,1025.006104 
	C1005.035217,1040.042969 991.937988,1056.628052 983.593628,1076.740479 
	C977.452209,1091.543335 973.937134,1106.940674 973.190857,1122.812256 
	C972.784424,1131.458130 973.960815,1140.241821 975.061707,1148.881958 
	C977.582886,1168.669067 985.675720,1186.226196 998.765564,1201.095703 
	C1018.481812,1223.492310 1044.439453,1232.648071 1073.539062,1233.935913 
	C1088.732056,1234.608398 1103.724854,1232.166992 1118.430908,1228.700439 
	C1151.215576,1220.972046 1183.880615,1212.736572 1216.598022,1204.722534 
	C1251.844482,1196.089111 1287.108276,1187.525757 1322.340210,1178.833374 
	C1356.776489,1170.337280 1391.167603,1161.657715 1425.605347,1153.167725 
	C1458.631714,1145.025635 1491.718750,1137.129150 1524.728882,1128.922485 
	C1546.669434,1123.468140 1568.696899,1118.253052 1590.370117,1111.861816 
	C1619.042358,1103.406860 1645.956421,1091.443726 1665.812134,1067.688965 
	C1674.084106,1057.792847 1680.258789,1046.702637 1683.936279,1034.369873 
	C1689.272461,1016.474182 1690.821533,998.129517 1687.885498,979.698425 
	C1685.506714,964.764954 1682.935303,949.757202 1678.896240,935.213806 
	C1669.160400,900.157959 1653.215820,867.666199 1635.995972,835.755188 
	C1621.332520,808.581482 1605.651855,781.987793 1587.325806,757.174561 
	C1573.308472,738.195312 1558.200562,719.927979 1542.437988,702.367188 
	C1533.377441,692.273132 1522.450684,683.691895 1511.639282,675.371216 
	C1496.949829,664.065857 1480.705566,655.410339 1461.641724,650.899109 
z"/>
<path fill="#FF1A1A" opacity="1.000000" stroke="none" 
	d="
M938.039673,124.895264 
	C944.776123,138.849915 949.236511,153.169098 950.896545,168.159485 
	C952.436218,182.062790 953.708923,196.068329 953.815369,210.038635 
	C953.938721,226.235062 952.683899,242.443100 951.986084,258.644348 
	C951.352783,273.348175 950.639160,288.048615 950.006531,302.752472 
	C949.309387,318.953674 948.682007,335.157898 947.991150,351.359375 
	C947.349976,366.396240 946.651245,381.430695 946.003174,396.467255 
	C945.319153,412.335693 944.675842,428.205841 943.995056,444.074402 
	C943.342773,459.277496 942.659973,474.479309 942.000366,489.682068 
	C941.326416,505.217621 940.666565,520.753784 939.996399,536.289490 
	C939.333435,551.658752 938.660706,567.027588 938.000793,582.396973 
	C937.326599,598.099182 936.675354,613.802429 935.990906,629.504150 
	C935.342712,644.374023 934.645264,659.241821 934.004944,674.112061 
	C933.314514,690.146851 932.678284,706.183960 931.994019,722.219055 
	C931.345276,737.422363 930.656494,752.623840 930.000793,767.826843 
	C929.323547,783.528809 928.670593,799.231934 927.996826,814.934082 
	C927.337280,830.303528 926.709167,845.674500 925.984314,861.040894 
	C925.384888,873.746521 925.048096,886.480530 923.923645,899.142334 
	C920.960571,932.505310 914.844116,965.174133 898.892151,995.101868 
	C887.003723,1017.405884 870.916138,1036.056641 847.857117,1047.494385 
	C833.390869,1054.670044 817.770142,1058.136475 801.650330,1056.863647 
	C777.276489,1054.939331 755.561401,1045.750366 736.232910,1030.763672 
	C715.259399,1014.501404 698.916138,994.356506 686.084595,971.284546 
	C674.738892,950.884155 663.632812,930.350586 652.416565,909.878235 
	C636.962708,881.671143 621.504944,853.466187 606.048584,825.260437 
	C594.830200,804.788391 583.609558,784.317566 572.393555,763.844299 
	C556.940735,735.637207 541.494629,707.426392 526.039307,679.220703 
	C514.821228,658.747986 503.586243,638.284424 492.370514,617.810364 
	C476.918671,589.603394 461.478760,561.389771 446.032013,533.179932 
	C434.899384,512.848694 423.759338,492.521454 412.630951,472.187866 
	C399.071686,447.412506 385.506409,422.640442 371.971680,397.851654 
	C361.405884,378.500427 350.394470,359.371857 340.479492,339.691772 
	C330.776398,320.432190 324.044250,300.107880 320.860657,278.558868 
	C315.315002,241.021011 324.373840,207.465942 347.091736,177.482117 
	C365.229462,153.543274 388.471924,135.406830 414.010193,119.973434 
	C443.034973,102.433090 474.061188,89.391693 505.864655,77.853592 
	C537.583496,66.346214 569.983643,57.215199 602.709412,49.324478 
	C624.710266,44.019707 647.054810,40.032310 669.372009,36.189903 
	C681.958496,34.022854 694.772278,32.829891 707.535095,32.113270 
	C727.378052,30.999109 747.304932,29.536623 767.124451,30.240892 
	C805.363037,31.599663 842.494385,38.671616 876.347046,57.804482 
	C899.814209,71.067673 918.849243,88.977661 931.946106,112.794662 
	C934.063416,116.644981 935.987366,120.601562 938.039673,124.895264 
z"/>
<path fill="#FF1A1A" opacity="1.000000" stroke="none" 
	d="
M1526.998047,1548.999756 
	C1536.928955,1554.386230 1546.894653,1559.092896 1555.970581,1565.135742 
	C1576.804443,1579.007324 1598.421753,1592.041260 1614.853516,1611.475220 
	C1621.639771,1619.501465 1627.875977,1627.732910 1632.505127,1637.602417 
	C1637.142700,1647.489624 1640.611816,1657.515381 1641.606079,1667.965210 
	C1642.631104,1678.737305 1641.968140,1689.873413 1640.490356,1700.636963 
	C1637.666382,1721.204590 1630.015869,1740.477539 1619.666992,1758.229492 
	C1609.172852,1776.230713 1597.207520,1793.446533 1584.974609,1810.346436 
	C1561.477661,1842.807617 1532.678345,1870.556519 1503.963745,1898.229858 
	C1489.913086,1911.770996 1474.614258,1924.101807 1459.225464,1936.143677 
	C1446.129517,1946.390869 1432.498657,1956.087891 1418.382446,1964.867432 
	C1396.534424,1978.455811 1373.219849,1989.275635 1347.702271,1993.798462 
	C1323.964722,1998.005615 1300.782104,1995.715210 1279.062866,1984.044189 
	C1263.852295,1975.870605 1251.648926,1964.302490 1240.625488,1951.242432 
	C1225.432007,1933.241699 1214.323975,1912.730225 1203.445923,1892.015991 
	C1191.218506,1868.732788 1178.570435,1845.670776 1166.145996,1822.490723 
	C1156.270386,1804.065796 1146.478760,1785.595947 1136.608643,1767.168091 
	C1123.804443,1743.262207 1110.941650,1719.387573 1098.137573,1695.481567 
	C1088.267578,1677.053711 1078.475464,1658.583862 1068.601074,1640.158447 
	C1056.178101,1616.977173 1043.699951,1593.825806 1031.258423,1570.654541 
	C1021.212891,1551.945679 1011.237244,1533.199097 1001.136475,1514.520264 
	C992.295715,1498.171265 983.350525,1481.930176 977.848450,1463.990723 
	C972.732666,1447.311157 969.694580,1430.333862 971.147949,1413.016357 
	C973.875793,1380.513550 988.136597,1354.691528 1017.071167,1337.937744 
	C1029.867188,1330.528809 1043.605469,1326.566162 1058.210693,1324.969849 
	C1093.828369,1321.076782 1126.233398,1331.261597 1157.114990,1347.653320 
	C1183.505005,1361.660889 1209.646606,1376.136719 1235.886108,1390.427246 
	C1261.552002,1404.405396 1287.189941,1418.435303 1312.864258,1432.398193 
	C1339.686157,1446.985107 1366.570190,1461.457886 1393.364868,1476.094849 
	C1417.439331,1489.245728 1441.402222,1502.601074 1465.467651,1515.768677 
	C1478.070435,1522.664185 1490.807373,1529.313721 1503.446899,1536.142700 
	C1511.210205,1540.337280 1518.903809,1544.661011 1526.998047,1548.999756 
z"/>
<path fill="#FF1A1A" opacity="1.000000" stroke="none" 
	d="
M574.902466,2105.042480 
	C545.735840,2095.438721 517.509827,2084.583984 490.044281,2071.661133 
	C464.378876,2059.584961 439.753967,2045.772217 417.742767,2027.941040 
	C398.588470,2012.424194 381.646912,1994.670288 371.752930,1971.383911 
	C364.565826,1954.468506 361.689331,1937.139526 363.789398,1918.641113 
	C366.997162,1890.385498 378.581848,1865.546997 394.177246,1842.598511 
	C415.642822,1811.012451 438.253357,1780.204102 460.404877,1749.084839 
	C475.928223,1727.277344 491.432220,1705.455444 507.075104,1683.733765 
	C525.688599,1657.887329 544.468628,1632.161011 563.124695,1606.345093 
	C575.940063,1588.611450 588.648071,1570.799927 601.439209,1553.048706 
	C616.999817,1531.453857 632.572754,1509.867798 648.188293,1488.312622 
	C657.390259,1475.610718 666.416260,1462.768555 676.003601,1450.362183 
	C688.885132,1433.692993 704.166809,1419.517456 722.155273,1408.389771 
	C736.182434,1399.712769 751.259399,1393.497437 767.565491,1391.142212 
	C790.127686,1387.883545 811.181152,1392.427734 830.069641,1405.600830 
	C849.718201,1419.304199 861.860046,1438.527588 868.714905,1460.940674 
	C872.313416,1472.706543 874.390259,1485.080322 875.788147,1497.335327 
	C877.117249,1508.988159 877.088745,1520.850830 876.898315,1532.608887 
	C876.633057,1548.984131 875.690674,1565.349121 874.982849,1581.716309 
	C874.361389,1596.086914 873.621033,1610.452515 873.011108,1624.823608 
	C872.295288,1641.690186 871.687988,1658.561523 870.988159,1675.428955 
	C870.357361,1690.632446 869.649414,1705.832886 869.003967,1721.035767 
	C868.316162,1737.237061 867.681152,1753.440674 866.986877,1769.641602 
	C866.349670,1784.511475 865.639709,1799.378296 865.006653,1814.248413 
	C864.309937,1830.615967 863.681824,1846.986328 862.991150,1863.354126 
	C862.349670,1878.557373 861.649475,1893.757935 861.004089,1908.960938 
	C860.316284,1925.162231 859.725464,1941.367798 858.972900,1957.565918 
	C858.413574,1969.606323 858.028320,1981.671509 856.924805,1993.666626 
	C854.463379,2020.422363 850.415649,2046.862305 837.482605,2070.990234 
	C825.388428,2093.553467 807.978516,2110.334229 784.187500,2120.501953 
	C770.980530,2126.145996 757.333801,2129.557617 743.156433,2130.947510 
	C733.154907,2131.927979 723.068115,2133.172363 713.071045,2132.822266 
	C693.574646,2132.139893 674.236267,2129.839111 654.969971,2126.258789 
	C628.316528,2121.305664 602.419250,2113.788574 576.593933,2105.837891 
	C576.130920,2105.695312 575.733215,2105.340576 574.902466,2105.042480 
z"/>
<path fill="#FF1A1A" opacity="1.000000" stroke="none" 
	d="
M676.277344,1125.692871 
	C692.396423,1133.460083 706.888062,1143.057983 718.998169,1155.681763 
	C733.885986,1171.201050 743.965637,1189.372925 747.066467,1211.093262 
	C750.853760,1237.621948 744.207703,1261.582642 729.151917,1283.182861 
	C710.994812,1309.232666 685.686951,1325.345459 655.083862,1332.908936 
	C627.915588,1339.623291 600.569458,1345.620850 573.286926,1351.869385 
	C543.937866,1358.590942 514.572144,1365.239746 485.212280,1371.914062 
	C455.852051,1378.588379 426.492004,1385.263550 397.128235,1391.922485 
	C372.208435,1397.573364 347.280975,1403.190430 322.361420,1408.842529 
	C289.982422,1416.186646 257.623810,1423.621582 225.224472,1430.874512 
	C209.493362,1434.396240 193.818192,1438.583374 177.881805,1440.653931 
	C162.522964,1442.649536 146.771393,1443.676025 131.352020,1442.673340 
	C108.007782,1441.154907 86.380913,1433.209473 67.956894,1418.303833 
	C55.352478,1408.106323 45.530346,1395.449829 37.616642,1381.249512 
	C26.379324,1361.085327 19.634018,1339.320557 15.246719,1316.889771 
	C12.549796,1303.101196 11.055114,1288.994873 10.149970,1274.958496 
	C8.882123,1255.297485 8.044769,1235.564087 8.184895,1215.869995 
	C8.310411,1198.229004 9.338585,1180.528687 11.181271,1162.982056 
	C13.486554,1141.030518 16.125351,1119.036499 20.256651,1097.372803 
	C26.217270,1066.116699 34.463226,1035.316406 50.467613,1007.457031 
	C57.099808,995.912109 64.977898,984.764099 73.949463,974.953674 
	C88.931313,958.571045 108.270683,948.797119 130.155594,945.227295 
	C146.006729,942.641724 162.034836,943.507629 177.923416,946.416992 
	C208.549622,952.025024 237.104370,964.050903 266.133850,974.604126 
	C299.763458,986.829651 333.347626,999.180115 366.951965,1011.475159 
	C400.556671,1023.770325 434.165588,1036.053955 467.765869,1048.361450 
	C505.184570,1062.067383 542.595703,1075.793945 580.009949,1089.511963 
	C608.872070,1100.094360 637.741882,1110.655762 666.585022,1121.289551 
	C669.789917,1122.471191 672.842957,1124.064575 676.277344,1125.692871 
z"/>
<path fill="#FF1A1A" opacity="1.000000" stroke="none" 
	d="
M1462.063477,650.941895 
	C1480.705566,655.410339 1496.949829,664.065857 1511.639282,675.371216 
	C1522.450684,683.691895 1533.377441,692.273132 1542.437988,702.367188 
	C1558.200562,719.927979 1573.308472,738.195312 1587.325806,757.174561 
	C1605.651855,781.987793 1621.332520,808.581482 1635.995972,835.755188 
	C1653.215820,867.666199 1669.160400,900.157959 1678.896240,935.213806 
	C1682.935303,949.757202 1685.506714,964.764954 1687.885498,979.698425 
	C1690.821533,998.129517 1689.272461,1016.474182 1683.936279,1034.369873 
	C1680.258789,1046.702637 1674.084106,1057.792847 1665.812134,1067.688965 
	C1645.956421,1091.443726 1619.042358,1103.406860 1590.370117,1111.861816 
	C1568.696899,1118.253052 1546.669434,1123.468140 1524.728882,1128.922485 
	C1491.718750,1137.129150 1458.631714,1145.025635 1425.605347,1153.167725 
	C1391.167603,1161.657715 1356.776489,1170.337280 1322.340210,1178.833374 
	C1287.108276,1187.525757 1251.844482,1196.089111 1216.598022,1204.722534 
	C1183.880615,1212.736572 1151.215576,1220.972046 1118.430908,1228.700439 
	C1103.724854,1232.166992 1088.732056,1234.608398 1073.539062,1233.935913 
	C1044.439453,1232.648071 1018.481812,1223.492310 998.765564,1201.095703 
	C985.675720,1186.226196 977.582886,1168.669067 975.061707,1148.881958 
	C973.960815,1140.241821 972.784424,1131.458130 973.190857,1122.812256 
	C973.937134,1106.940674 977.452209,1091.543335 983.593628,1076.740479 
	C991.937988,1056.628052 1005.035217,1040.042969 1020.448547,1025.006104 
	C1030.349609,1015.346985 1040.088501,1005.519287 1049.804321,995.672668 
	C1068.850586,976.369873 1087.835449,957.006348 1106.835449,937.657837 
	C1124.200806,919.973938 1141.550171,902.274536 1158.911133,884.586304 
	C1176.855591,866.303528 1194.807495,848.027893 1212.752441,829.745544 
	C1230.230591,811.938904 1247.702393,794.126099 1265.180054,776.319031 
	C1283.007812,758.155090 1300.866211,740.021118 1318.657715,721.821777 
	C1327.595337,712.679321 1336.078735,703.065796 1345.363525,694.296509 
	C1360.036865,680.437988 1375.467773,667.422424 1393.879761,658.622864 
	C1410.114502,650.863770 1427.254395,646.930786 1445.300171,648.097656 
	C1450.784790,648.452332 1456.196533,649.933777 1462.063477,650.941895 
z"/>
</svg>